<?xml version="1.0" encoding="UTF-8" standalone="no"?>
<!-- Created with Inkscape (http://www.inkscape.org/) -->

<svg
   xmlns:dc="http://purl.org/dc/elements/1.1/"
   xmlns:cc="http://creativecommons.org/ns#"
   xmlns:rdf="http://www.w3.org/1999/02/22-rdf-syntax-ns#"
   xmlns:svg="http://www.w3.org/2000/svg"
   xmlns="http://www.w3.org/2000/svg"
   xmlns:sodipodi="http://sodipodi.sourceforge.net/DTD/sodipodi-0.dtd"
   xmlns:inkscape="http://www.inkscape.org/namespaces/inkscape"
   width="1633.22mm"
   height="385.53693mm"
   viewBox="0 0 1633.22 385.53693"
   version="1.1"
   id="svg8"
   inkscape:version="0.92.4 (5da689c313, 2019-01-14)"
   sodipodi:docname="logo.svg">
  <defs
     id="defs2" />
  <sodipodi:namedview
     id="base"
     pagecolor="#ffffff"
     bordercolor="#666666"
     borderopacity="1.0"
     inkscape:pageopacity="0.0"
     inkscape:pageshadow="2"
     inkscape:zoom="0.04375"
     inkscape:cx="8474.8611"
     inkscape:cy="-236.78908"
     inkscape:document-units="mm"
     inkscape:current-layer="layer1"
     showgrid="false"
     fit-margin-top="0"
     fit-margin-left="0"
     fit-margin-right="0"
     fit-margin-bottom="0"
     inkscape:window-width="1366"
     inkscape:window-height="705"
     inkscape:window-x="-8"
     inkscape:window-y="-8"
     inkscape:window-maximized="1" />
  <metadata
     id="metadata5">
    <rdf:RDF>
      <cc:Work
         rdf:about="">
        <dc:format>image/svg+xml</dc:format>
        <dc:type
           rdf:resource="http://purl.org/dc/dcmitype/StillImage" />
        <dc:title></dc:title>
      </cc:Work>
    </rdf:RDF>
  </metadata>
  <g
     inkscape:label="Layer 1"
     inkscape:groupmode="layer"
     id="layer1"
     transform="translate(779.22564,87.749535)">
    <path
       style="fill:#000000;stroke-width:0.28222224"
       d="m -779.22564,287.04161 v -10.72445 h 8.04333 8.04334 v 2.68111 2.68111 h 2.39888 2.39889 v 8.04334 8.04333 h -10.44222 -10.44222 z m 23.14222,2.68111 v -8.04334 h 2.39889 2.39889 v -4.79778 -4.79777 h -13.97 -13.97 v -13.90216 -13.90215 l 5.43542,-5.43007 5.43543,-5.43007 h 5.0068 5.00679 v 8.04333 8.04334 h -2.39889 -2.39888 v 4.79778 4.79777 h 13.97 13.97 v 13.8968 13.89679 l -5.43007,5.43543 -5.43006,5.43543 h -5.01216 -5.01216 z m 37.32118,2.6079 -5.43007,-5.43543 v -18.69457 -18.69457 h -2.68111 -2.68111 v -8.04334 -8.04333 h 10.72444 10.72445 v 24.13 24.13 h 2.82222 2.82222 v 8.04334 8.04333 h -5.43549 -5.43549 z m 18.2766,-2.6079 v -8.04334 h 2.96333 2.96334 v -24.13 -24.13 h 10.58333 10.58333 v 8.04333 8.04334 h -2.68111 -2.68111 v 18.84113 18.8411 l -5.29438,5.2889 -5.29438,5.28887 h -5.57118 -5.57117 z m 33.02,-2.68111 v -10.72445 h 8.04333 8.04334 v 2.68111 2.68111 h 2.39888 2.39889 v 8.04334 8.04333 h -10.44222 -10.44222 z m 23.14222,2.68111 v -8.04334 h 2.39889 2.39889 v -4.79778 -4.79777 h -13.97 -13.97 v -13.90216 -13.90215 l 5.43542,-5.43007 5.43543,-5.43007 h 5.0068 5.00679 v 8.04333 8.04334 h -2.39889 -2.39888 v 4.79778 4.79777 h 13.97 13.97 v 13.8968 13.89679 l -5.43007,5.43543 -5.43006,5.43543 h -5.01216 -5.01216 z m 40.07556,0 v -8.04334 h 2.68111 2.68111 v -24.13 -24.13 h 7.90222 7.90222 v 24.13 24.13 h 2.68111 2.68112 v 8.04334 8.04333 h -13.26445 -13.26444 z m 38.38222,0 v -8.04334 h 2.65868 2.65869 l 0.15896,-0.77611 c 0.0874,-0.42686 1.75238,-10.93611 3.69991,-23.35389 1.94753,-12.41778 3.61068,-22.92703 3.69589,-23.35389 l 0.15494,-0.77611 h 4.49313 c 2.47122,0 4.49313,0.0575 4.49313,0.12779 0,0.0703 0.83487,5.24552 1.85527,11.50056 l 1.85528,11.37276 -3.32322,20.67278 -3.32322,20.67278 h -9.53872 -9.53872 z m 33.26917,0.0706 -1.27057,-7.97278 -4.00485,-0.0783 c -2.36156,-0.0462 -4.00486,-0.19126 -4.00486,-0.35363 0,-0.15144 0.4445,-3.01399 0.98778,-6.3612 0.54327,-3.34721 0.98777,-6.14082 0.98777,-6.20802 0,-0.0672 0.89909,-0.12217 1.99798,-0.12217 h 1.99798 l -0.15778,-0.77611 c -0.0868,-0.42686 -1.30532,-7.95161 -2.70786,-16.72167 -1.40253,-8.77005 -2.62576,-16.35831 -2.71827,-16.86278 l -0.1682,-0.91722 h 8.19344 8.19342 l 0.15494,0.77611 c 0.0852,0.42686 1.74837,10.93611 3.6959,23.35389 1.9475,12.41778 3.61247,22.92703 3.69991,23.35389 l 0.15894,0.77611 h 2.65871 2.65867 v 8.04334 8.04333 h -9.54123 -9.54122 z m 29.83851,7.19667 c -0.0852,-0.42686 -1.74836,-10.93611 -3.6959,-23.35389 -1.9475,-12.41778 -3.61247,-22.92703 -3.6999,-23.35389 l -0.15895,-0.77611 h -2.6587 -2.65868 v -8.04334 -8.04333 h 9.53926 9.53922 l 5.01994,31.39722 c 2.76098,17.26848 5.08819,31.74648 5.17161,32.17334 l 0.15164,0.77611 h -8.19728 -8.19732 z m 18.72928,0.56444 c -0.004,-0.11641 -0.81531,-5.29166 -1.80266,-11.50055 l -1.79519,-11.28889 3.27048,-20.67278 3.2705,-20.67278 h 9.53883 9.53886 v 8.04333 8.04334 h -2.65868 -2.6587 l -0.15895,0.77611 c -0.0874,0.42686 -1.7524,10.93611 -3.6999,23.35389 -1.94753,12.41778 -3.6107,22.92703 -3.6959,23.35389 l -0.15494,0.77611 h -4.49315 c -2.47122,0 -4.49648,-0.0953 -4.5006,-0.21167 z m 54.75859,-7.8169 v -8.04977 l 20.53729,-24.06362 20.53728,-24.0636 2.46383,-0.0815 2.46383,-0.0816 -0.003,8.12489 -0.003,8.12487 -20.47553,23.98889 -20.47554,23.98889 -2.52239,0.0811 -2.52239,0.0812 v -8.04977 z m 8.51214,7.24707 c 0.36305,-0.42983 3.44655,-4.04933 6.85221,-8.04333 l 6.19213,-7.26184 h 4.17954 4.17954 v -2.68111 -2.68111 h 8.04333 8.04334 v 10.72445 10.72444 h -19.07509 -19.07509 z m 43.13453,-7.26183 v -8.04334 h 2.65868 2.6587 l 0.15895,-0.77611 c 0.0874,-0.42686 1.7524,-10.93611 3.6999,-23.35389 1.94753,-12.41778 3.6107,-22.92703 3.6959,-23.35389 l 0.15494,-0.77611 h 4.49315 c 2.47122,0 4.49311,0.0575 4.49311,0.12779 0,0.0703 0.83487,5.24552 1.85528,11.50056 l 1.85527,11.37276 -3.32322,20.67278 -3.32323,20.67278 h -9.53871 -9.53872 z m 33.26918,0.0706 -1.27057,-7.97278 -4.00487,-0.0783 c -2.36155,-0.0462 -4.00485,-0.19126 -4.00485,-0.35363 0,-0.15144 0.4445,-3.01399 0.98778,-6.3612 0.54328,-3.34721 0.98778,-6.14082 0.98778,-6.20802 0,-0.0672 0.8991,-0.12217 1.99799,-0.12217 h 1.99796 l -0.15779,-0.77611 c -0.0868,-0.42686 -1.3053,-7.95161 -2.70784,-16.72167 -1.40256,-8.77005 -2.62576,-16.35831 -2.71828,-16.86278 l -0.1682,-0.91722 h 8.19345 8.19342 l 0.15494,0.77611 c 0.0852,0.42686 1.74836,10.93611 3.69589,23.35389 1.94751,12.41778 3.61248,22.92703 3.69991,23.35389 l 0.15895,0.77611 h 2.6587 2.65867 v 8.04334 8.04333 h -9.54122 -9.54123 z m 63.88311,2.53735 -5.43007,-5.43543 v -18.69457 -18.69457 h -2.68111 -2.68111 v -8.04334 -8.04333 h 10.72445 10.72444 v 24.13 24.13 h 2.82223 2.82222 v 8.04334 8.04333 h -5.43549 -5.43549 z m 18.2766,-2.6079 v -8.04334 h 2.96334 2.96333 v -24.13 -24.13 h 10.58333 10.58334 v 8.04333 8.04334 h -2.68111 -2.68111 v 18.84113 18.8411 l -5.29438,5.2889 -5.29438,5.28887 h -5.57118 -5.57118 z m 33.02,0 v -8.04334 h 2.68112 2.68111 v -16.08666 -16.08667 h -2.68111 -2.68112 v -8.04334 -8.04333 h 10.72445 10.72444 v 24.13 24.13 h 2.68111 2.68112 v 8.04334 8.04333 h -13.40556 -13.40556 z m 53.90445,0 v -8.04334 h 2.68111 2.68111 v -16.08676 -16.08667 h -2.68111 -2.68111 v -8.04334 -8.04333 h 10.72444 10.72445 v 32.17334 32.17333 h -10.72445 -10.72444 z m 34.33569,7.83166 c -0.13064,-0.21477 -5.83125,-20.83915 -5.83125,-21.09698 0,-0.0771 -1.0795,-0.14024 -2.39889,-0.14024 h -2.39888 v -8.04333 -8.04334 h 4.23333 4.23333 v -5.36222 -5.36222 h -4.23333 -4.23333 v -8.04334 -8.04333 h 6.84123 6.84124 l 5.43543,5.43007 5.43543,5.43007 v 9.31099 9.31099 l -2.69136,2.70152 -2.69138,2.70148 1.80464,6.6169 1.80464,6.61687 2.72116,0.0808 2.72119,0.0808 v 8.03311 8.03312 h -8.73224 c -4.80272,0 -8.79015,-0.0953 -8.86096,-0.21167 z m 23.23764,-7.83166 v -8.04334 h 2.65868 2.6587 l 0.15895,-0.77611 c 0.0874,-0.42686 1.7524,-10.93611 3.6999,-23.35389 1.94753,-12.41778 3.6107,-22.92703 3.6959,-23.35389 l 0.15494,-0.77611 h 4.49315 c 2.471224,0 4.493124,0.0575 4.493124,0.12779 0,0.0703 0.83487,5.24552 1.85527,11.50056 l 1.85527,11.37276 -3.32322,20.67278 -3.32323,20.67278 h -9.538714 -9.53872 z m 33.269184,0.0706 -1.27057,-7.97278 -4.00487,-0.0783 c -2.36155,-0.0462 -4.00485,-0.19126 -4.00485,-0.35363 0,-0.15144 0.4445,-3.01399 0.98778,-6.3612 0.54328,-3.34721 0.98778,-6.14082 0.98778,-6.20802 0,-0.0672 0.8991,-0.12217 1.99799,-0.12217 h 1.99796 l -0.15779,-0.77611 c -0.0868,-0.42686 -1.3053,-7.95161 -2.70784,-16.72167 -1.40255,-8.77005 -2.62576,-16.35831 -2.71827,-16.86278 l -0.16821,-0.91722 h 8.19345 8.19342 l 0.15494,0.77611 c 0.0852,0.42686 1.74836,10.93611 3.69589,23.35389 1.9475,12.41778 3.61247,22.92703 3.69991,23.35389 l 0.15894,0.77611 h 2.65871 2.65867 v 8.04334 8.04333 h -9.54123 -9.54122 z m 29.8385,7.19667 c -0.0852,-0.42686 -1.74837,-10.93611 -3.6959,-23.35389 -1.9475,-12.41778 -3.61247,-22.92703 -3.6999,-23.35389 l -0.15895,-0.77611 h -2.6587 -2.65868 v -8.04334 -8.04333 h 9.53926 9.53922 l 5.01994,31.39722 c 2.76098,17.26848 5.08819,31.74648 5.17161,32.17334 l 0.15164,0.77611 h -8.19729 -8.19731 z m 18.72928,0.56444 c -0.004,-0.11641 -0.81531,-5.29166 -1.80266,-11.50055 l -1.79519,-11.28889 3.27048,-20.67278 3.2705,-20.67278 h 9.53883 9.53886 v 8.04333 8.04334 h -2.65868 -2.6587 l -0.15895,0.77611 c -0.0874,0.42686 -1.7524,10.93611 -3.6999,23.35389 -1.94754,12.41778 -3.6107,22.92703 -3.6959,23.35389 l -0.15494,0.77611 h -4.49315 c -2.47122,0 -4.49648,-0.0953 -4.5006,-0.21167 z m 27.6652596,-7.83166 v -8.04334 h 2.68111 2.68111 V 265.59287 249.5062 h -2.68111 -2.68111 v -8.04334 -8.04333 H 5.2110376 18.616588 v 8.04333 8.04334 h -2.68111 -2.68111 v 24.13 24.13 H 2.5299136 -8.1945264 Z m 23.7066744,0 v -8.04334 h 4.23333 4.23333 v -4.09222 -4.09222 h 8.04334 8.04333 v 12.13555 12.13556 h -12.27667 -12.27666 z m 35.62784,2.6079 -5.43007,-5.43543 v -6.70013 -6.70012 h 8.04334 8.04333 v 4.09222 4.09222 h 2.11667 2.11666 v 8.04334 8.04333 h -4.72993 -4.72993 z m 17.14771,-2.6079 v -8.04334 h 2.11667 2.11667 V 265.59287 249.5062 h -2.68112 -2.68111 v -8.04334 -8.04333 h 13.40556 13.40555 v 8.04333 8.04334 h -2.68111 -2.68111 v 18.69457 18.69457 l -5.43007,5.43543 -5.43006,5.43543 h -4.72994 -4.72993 z m 25.96445,0 v -8.04334 h 2.65867 2.6587 l 0.15895,-0.77611 c 0.0874,-0.42686 1.752402,-10.93611 3.699912,-23.35389 1.94753,-12.41778 3.61069,-22.92703 3.69589,-23.35389 l 0.15494,-0.77611 h 4.49315 c 2.47122,0 4.49312,0.0575 4.49312,0.12779 0,0.0703 0.83487,5.24552 1.85527,11.50056 l 1.85527,11.37276 -3.32322,20.67278 -3.32322,20.67278 h -9.53872 -9.538712 z m 33.269172,0.0706 -1.27056,-7.97278 -4.00488,-0.0783 c -2.36155,-0.0462 -4.00484,-0.19126 -4.00484,-0.35363 0,-0.15144 0.4445,-3.01399 0.98777,-6.3612 0.54328,-3.34721 0.98778,-6.14082 0.98778,-6.20802 0,-0.0672 0.8991,-0.12217 1.99799,-0.12217 h 1.99797 l -0.15779,-0.77611 c -0.0868,-0.42686 -1.30531,-7.95161 -2.70784,-16.72167 -1.40256,-8.77005 -2.62577,-16.35831 -2.71828,-16.86278 l -0.1682,-0.91722 h 8.19344 8.19342 l 0.15494,0.77611 c 0.0852,0.42686 1.74837,10.93611 3.6959,23.35389 1.9475,12.41778 3.61247,22.92703 3.6999,23.35389 l 0.15895,0.77611 h 2.6587 2.65868 v 8.04334 8.04333 h -9.54123 -9.54123 z m 25.99749,-0.0706 v -8.04334 h 2.68111 2.68112 V 266.7216 251.76383 h 2.0572 2.0572 l 5.98613,11.68871 5.98613,11.68869 v 11.31242 11.3124 h -10.72444 -10.72445 z m 23.10912,-16.01612 -12.30441,-24.05944 -5.40235,-0.0766 -5.40236,-0.0767 v -8.03724 -8.03724 h 9.10435 9.10435 l 12.30441,24.05945 12.30441,24.05944 5.40235,0.0766 5.40235,0.0767 v 8.03724 8.03724 h -9.10434 -9.10435 z m 41.58761,18.62402 -5.43007,-5.43543 v -6.70013 -6.70012 h 8.04333 8.04334 v 4.09222 4.09222 h 2.11666 2.11667 v 8.04334 8.04333 h -4.72993 -4.72993 z m 17.14771,-2.6079 v -8.04334 h 2.11666 2.11667 V 265.59287 249.5062 h -2.68111 -2.68111 v -8.04334 -8.04333 h 13.40555 13.40556 v 8.04333 8.04334 h -2.68111 -2.68111 v 18.69457 18.69457 l -5.43007,5.43543 -5.43007,5.43543 h -4.72993 -4.72993 z m 31.32666,0 v -8.04334 h 2.68112 2.68111 V 265.59287 249.5062 h -2.68111 -2.68112 v -8.04334 -8.04333 h 10.72445 10.72444 v 32.17334 32.17333 h -10.72444 -10.72445 z m 23.70667,0 v -8.04334 h 4.23333 4.23334 v -4.09222 -4.09222 h 8.04333 8.04333 v 12.13555 12.13556 h -12.27666 -12.27667 z m 57.29111,-2.68111 v -10.72445 h 8.04334 8.04333 v 2.68111 2.68111 h 2.39889 2.39889 v 8.04334 8.04333 h -10.44223 -10.44222 z m 23.14222,2.68111 v -8.04334 h 2.39889 2.39889 v -4.79778 -4.79777 h -13.97 -13.97 v -13.90216 -13.90215 l 5.43543,-5.43007 5.43543,-5.43007 h 5.0068 5.00679 v 8.04333 8.04334 h -2.39889 -2.39889 v 4.79778 4.79777 h 13.97 13.97 v 13.8968 13.89679 l -5.43007,5.43543 -5.43007,5.43543 h -5.01215 -5.01216 z m 26.52889,0 v -8.04334 h 2.65868 2.6587 l 0.15895,-0.77611 c 0.0874,-0.42686 1.7524,-10.93611 3.6999,-23.35389 1.94753,-12.41778 3.6107,-22.92703 3.6959,-23.35389 l 0.15494,-0.77611 h 4.49315 c 2.47122,0 4.49312,0.0575 4.49312,0.12779 0,0.0703 0.83487,5.24552 1.85527,11.50056 l 1.85527,11.37276 -3.32322,20.67278 -3.32322,20.67278 h -9.53872 -9.53872 z m 33.26918,0.0706 -1.27057,-7.97278 -4.00487,-0.0783 c -2.36155,-0.0462 -4.00485,-0.19126 -4.00485,-0.35363 0,-0.15144 0.4445,-3.01399 0.98778,-6.3612 0.54328,-3.34721 0.98778,-6.14082 0.98778,-6.20802 0,-0.0672 0.8991,-0.12217 1.99799,-0.12217 h 1.99796 l -0.15779,-0.77611 c -0.0868,-0.42686 -1.3053,-7.95161 -2.70783,-16.72167 -1.40256,-8.77005 -2.62577,-16.35831 -2.71828,-16.86278 l -0.16821,-0.91722 h 8.19345 8.19342 l 0.15494,0.77611 c 0.0852,0.42686 1.74836,10.93611 3.6959,23.35389 1.9475,12.41778 3.61247,22.92703 3.6999,23.35389 l 0.15895,0.77611 h 2.6587 2.65868 v 8.04334 8.04333 h -9.54123 -9.54123 z m 25.99749,-0.0706 v -8.04334 h 2.68111 2.68111 V 265.59287 249.5062 h -2.68111 -2.68111 v -8.04334 -8.04333 h 10.72444 10.72445 v 32.17334 32.17333 h -10.72445 -10.72444 z m 23.70667,0 v -8.04334 h 5.64444 5.64445 V 265.59287 249.5062 h -5.64445 -5.64444 v -8.04334 -8.04333 h 8.25779 8.25777 l 5.2889,5.29438 5.28887,5.29437 v 21.59009 21.59006 l -5.29438,5.2889 -5.29437,5.28887 h -8.25229 -8.25229 z m 33.02,0 v -8.04334 h 2.68111 2.68111 V 265.59287 249.5062 h -2.68111 -2.68111 v -8.04334 -8.04333 h 10.72444 10.72445 v 32.17334 32.17333 h -10.72445 -10.72444 z m 34.33569,7.83166 c -0.13064,-0.21477 -5.83125,-20.83915 -5.83125,-21.09698 0,-0.0771 -1.0795,-0.14024 -2.39889,-0.14024 h -2.39889 v -8.04333 -8.04334 h 4.23334 4.23333 v -5.36222 -5.36222 h -4.23333 -4.23334 v -8.04334 -8.04333 h 6.84124 6.84124 l 5.43543,5.43007 5.43543,5.43007 v 9.31099 9.31099 l -2.69136,2.70152 -2.69138,2.70148 1.80464,6.6169 1.80464,6.61687 2.72116,0.0808 2.72119,0.0808 v 8.03311 8.03312 h -8.73224 c -4.80272,0 -8.79015,-0.0953 -8.86096,-0.21167 z m 23.23764,-7.8169 v -8.04977 l 20.53728,-24.06362 20.53729,-24.0636 2.46382,-0.0815 2.46383,-0.0816 -0.003,8.12489 -0.003,8.12487 -20.47553,23.98889 -20.47553,23.98889 -2.52239,0.0811 -2.52239,0.0812 v -8.04977 z m 8.51213,7.24707 c 0.36305,-0.42983 3.44656,-4.04933 6.85222,-8.04333 l 6.19212,-7.26184 h 4.17954 4.17955 v -2.68111 -2.68111 h 8.04333 8.04333 v 10.72445 10.72444 H 597.8526 578.77751 Z m 43.13454,-7.26183 v -8.04334 h 2.65867 2.6587 l 0.15895,-0.77611 c 0.0874,-0.42686 1.7524,-10.93611 3.69991,-23.35389 1.94753,-12.41778 3.61069,-22.92703 3.69589,-23.35389 l 0.15494,-0.77611 h 4.49315 c 2.47122,0 4.49312,0.0575 4.49312,0.12779 0,0.0703 0.83487,5.24552 1.85527,11.50056 l 1.85527,11.37276 -3.32322,20.67278 -3.32322,20.67278 h -9.53872 -9.53871 z m 33.26917,0.0706 -1.27056,-7.97278 -4.00488,-0.0783 c -2.36155,-0.0462 -4.00484,-0.19126 -4.00484,-0.35363 0,-0.15144 0.4445,-3.01399 0.98777,-6.3612 0.54328,-3.34721 0.98778,-6.14082 0.98778,-6.20802 0,-0.0672 0.8991,-0.12217 1.99799,-0.12217 h 1.99797 l -0.15779,-0.77611 c -0.0868,-0.42686 -1.30531,-7.95161 -2.70784,-16.72167 -1.40256,-8.77005 -2.62577,-16.35831 -2.71828,-16.86278 l -0.1682,-0.91722 h 8.19344 8.19342 l 0.15494,0.77611 c 0.0852,0.42686 1.74837,10.93611 3.6959,23.35389 1.9475,12.41778 3.61247,22.92703 3.6999,23.35389 l 0.15895,0.77611 h 2.6587 2.65868 v 8.04334 8.04333 h -9.54123 -9.54123 z m 31.42756,2.53735 -5.43007,-5.43543 v -6.70013 -6.70012 h 8.04334 8.04333 v 4.09222 4.09222 h 2.11667 2.11666 v 8.04334 8.04333 h -4.72993 -4.72993 z m 17.14771,-2.6079 v -8.04334 h 2.11667 2.11666 v -16.08666 -16.08667 h -2.68111 -2.68111 v -8.04334 -8.04333 h 13.40556 13.40555 v 8.04333 8.04334 h -2.68111 -2.68111 v 18.69457 18.69457 l -5.43007,5.43543 -5.43007,5.43543 h -4.72993 -4.72993 z m 31.32667,0 v -8.04334 h 2.68111 2.68111 v -16.08666 -16.08667 h -2.68111 -2.68111 v -8.04334 -8.04333 h 10.72444 10.72445 v 32.17334 32.17333 h -10.72445 -10.72444 z m 23.70666,0 v -8.04334 h 4.23334 4.23333 v -4.09222 -4.09222 h 8.04333 8.04334 v 12.13555 12.13556 h -12.27667 -12.27667 z m 30.19778,0 v -8.04334 h 2.68111 2.68111 V 266.7216 251.76383 h 1.63399 1.63398 l 6.40935,11.58762 6.40935,11.58762 v 11.41349 11.41349 h -10.72444 -10.72445 z m 42.89775,-4.19687 v -12.24024 l -4.665,-8.42625 c -2.5657,-4.63446 -4.62945,-8.57397 -4.58607,-8.75448 0.0434,-0.18053 2.87097,-5.35861 6.28347,-11.50687 l 6.2045,-11.17863 h 9.106 9.106 v 8.04333 8.04334 h -2.6811 -2.6811 v 16.08667 16.08666 h 2.6811 2.6811 v 8.04334 8.04333 h -10.7244 -10.7245 z m -21.90851,-15.92516 -11.04299,-19.95353 -4.97313,-0.0771 -4.97312,-0.077 v -8.03685 -8.03681 h 9.10903 9.10904 l 11.21096,20.13441 c 6.16602,11.07392 11.21102,20.29412 11.21102,20.48934 0,0.40346 -8.24983,15.52106 -8.46671,15.51502 -0.0776,-0.003 -5.11046,-8.98302 -11.1841,-19.95746 z m -618.95865,-1.8678 -5.98613,-11.68868 v -11.31243 -11.3124 h 10.72444 10.72444 v 8.04333 8.04334 h -2.68112 -2.6811 v 14.95778 14.95778 h -2.0572 -2.0572 z m -397.14614,0.54094 v -8.04334 h 4.23333 4.23334 v -5.36222 -5.36222 h -4.23334 -4.23333 v -8.04334 -8.04333 h 6.8466 6.8466 l 5.43007,5.43543 5.43006,5.43543 v 10.58339 10.58339 l -5.43543,5.43007 -5.43543,5.43007 h -6.84123 -6.84124 z m 495.86444,-2.68111 v -5.36223 h 4.23333 4.23334 v 5.36223 5.36222 h -4.23334 -4.23333 z m 469.05333,0 v -5.36223 h 4.23334 4.23333 v 5.36223 5.36222 h -4.23333 -4.23334 z M -617.79453,245.55494 v -12.13556 h 8.32556 8.32555 v 8.04333 8.04334 h -1.69333 -1.69334 v 4.09222 4.09222 h -6.63222 -6.63222 z m 40.35778,8.04333 v -4.09222 h -1.69334 -1.69333 v -8.04334 -8.04333 h 8.32556 8.32555 v 12.13556 12.13555 h -6.63222 -6.63222 z m 876.3,0 v -4.09222 h -4.23334 -4.23333 v -8.04334 -8.04333 h 12.27667 12.27666 v 12.13556 12.13555 h -8.04333 -8.04333 z m 469.05333,0 v -4.09222 h -4.23333 -4.23334 v -8.04334 -8.04333 h 12.27667 12.27667 v 12.13556 12.13555 h -8.04334 -8.04333 z m -1519.20222,-1.41111 v -2.68111 h -2.39889 -2.39889 v -8.04334 -8.04333 h 10.44222 10.44223 v 10.72445 10.72444 h -8.04334 -8.04333 z m 111.76,0 v -2.68111 h -2.39889 -2.39889 v -8.04334 -8.04333 h 10.44222 10.44223 v 10.72445 10.72444 h -8.04334 -8.04333 z m 210.25555,-8.04333 v -10.72445 h 19.06601 c 18.52588,0 19.05556,0.015 18.69722,0.52448 -0.20283,0.28846 -3.26308,3.90796 -6.80057,8.04334 l -6.43176,7.51885 h -4.22213 -4.2221 v 2.68111 2.68111 h -8.04333 -8.04334 z m 804.89778,8.04333 v -2.68111 h -2.39889 -2.39889 v -8.04334 -8.04333 h 10.44223 10.44222 v 10.72445 10.72444 h -8.04333 -8.04334 z m 195.29778,-8.04333 v -10.72445 h 19.066 c 18.52589,0 19.05556,0.015 18.69722,0.52448 -0.20283,0.28846 -3.26308,3.90796 -6.80056,8.04334 l -6.43176,7.51885 h -4.22213 -4.2221 v 2.68111 2.68111 h -8.04334 -8.04333 z m 15.25386,-17.05946 c -4.26099,-1.59236 -7.79665,-3.04338 -7.85701,-3.22448 -0.0604,-0.18113 0.30522,-2.61422 0.81243,-5.4069 0.76894,-4.2337 0.99593,-5.0553 1.3659,-4.9436 2.89757,0.87481 13.28025,3.60615 13.70815,3.60615 0.42757,0 10.80158,-2.72892 13.70471,-3.60508 0.36616,-0.11049 0.59755,0.7497 1.37508,5.11218 0.52293,2.93412 0.82634,5.34142 0.68862,5.46376 -0.25426,0.22589 -15.69765,5.96708 -15.92371,5.91973 -0.0698,-0.0147 -3.61318,-1.32941 -7.87417,-2.92176 z M -305.09231,109.80604 V 70.294925 h 29.63334 29.63333 v 9.87778 9.87777 h 8.89 8.89 v 29.633345 29.63333 h -38.52333 -38.52334 z m 84.9489,9.87778 V 90.050475 h 8.89 8.89 v -17.78 -17.78 h -51.36445 -51.36445 V 3.1958353 -48.098805 l 19.82685,-19.82537 19.82687,-19.82536 h 18.69646 18.69649 v 29.63334 29.63333 h -8.89 -8.89 v 17.78 17.7800103 h 51.36445 51.36444 V 58.371785 109.66643 l -19.82684,19.82536 -19.82688,19.82536 h -18.69646 -18.69648 z m 136.665344,9.80648 -19.825344,-19.82686 v -69.073155 -69.07315 h -9.87778 -9.87778 v -29.63333 -29.63334 h 39.511114 39.51111 V 1.1504753 90.050475 h 10.30111 10.30111 v 29.633345 29.63333 h -20.1091 -20.10906 z m 67.94576,-9.80648 V 90.050475 H -5.0900864 5.3521476 V 1.1504753 -87.749535 h 39.5111104 39.51111 v 29.63334 29.63333 h -9.87778 -9.87778 v 69.07465 69.074645 l -19.82684,19.82536 -19.82687,19.82536 H 4.7164076 -15.532306 Z M 104.41215,109.80604 V 70.294925 h 29.63333 29.63333 v 9.87778 9.87777 h 8.89 8.89 v 29.633345 29.63333 h -38.52333 -38.52333 z m 84.94889,9.87778 V 90.050475 h 8.89 8.88999 v -17.78 -17.78 H 155.77659 104.41215 V 3.1958353 -48.098805 l 19.82684,-19.82537 19.82687,-19.82536 h 18.69646 18.69649 v 29.63334 29.63333 h -8.89 -8.89 v 17.78 17.7800103 h 51.36444 51.36444 V 58.371785 109.66643 l -19.82684,19.82536 -19.82688,19.82536 H 208.05751 189.36104 Z M -202.36341,-18.605085 v -9.87778 h -8.89 -8.89 v -29.63333 -29.63334 h 38.52333 38.52333 v 39.51112 39.5111103 h -29.63333 -29.63333 z m 409.50444,0 v -9.87778 h -8.88999 -8.89 v -29.63333 -29.63334 h 38.52332 38.52333 v 39.51112 39.5111103 h -29.63333 -29.63333 z"
       id="path21"
       inkscape:connector-curvature="0" />
  </g>
</svg>
